<svg enable-background="new 0 0 128 128" viewBox="0 0 128 128" xmlns="http://www.w3.org/2000/svg" xmlns:xlink="http://www.w3.org/1999/xlink"><radialGradient id="a" cx="63.7" cy="63.25" gradientUnits="userSpaceOnUse" r="59.275"><stop offset="0" stop-color="#57d785"/><stop offset="1" stop-color="#34bc6e"/></radialGradient><path d="m20.3 79.1-15.9-59.2 59.3-15.9 59.3 15.9-15.8 59.2-43.5 43.4z" fill="url(#a)"/><path d="m63.7 5.5 57.4 15.4-15.3 57.4-42.1 42-42-42-15.4-57.4zm0-3.1-61.1 16.4 16.4 61.1 44.7 44.7 44.8-44.7 16.3-61.1z"/><g opacity=".87"><path d="m87.1 77.8h-46.2c-.7 0-1.2-.5-1.2-1.2v-55.2c0-.7.5-1.2 1.2-1.2h46.1c.7 0 1.2.5 1.2 1.2v55.2c.1.7-.5 1.2-1.1 1.2zm-45-2.3h43.8v-52.9h-43.8z"/><path d="m81 41.7h-34c-.7 0-1.2-.5-1.2-1.2v-14.5c0-.7.5-1.2 1.2-1.2h34c.7 0 1.2.5 1.2 1.2v14.5c0 .7-.5 1.2-1.2 1.2zm-32.8-2.4h31.7v-12.1h-31.7z"/><path d="m56.7 69.9h-9.7c-.7 0-1.2-.5-1.2-1.2v-9.7c0-.7.5-1.2 1.2-1.2h9.7c.7 0 1.2.5 1.2 1.2v9.7c0 .7-.5 1.2-1.2 1.2zm-8.5-2.3h7.4v-7.4h-7.4z"/><path d="m81 46.5h-34c-.7 0-1.2-.5-1.2-1.2s.5-1.2 1.2-1.2h34c.7 0 1.2.5 1.2 1.2s-.5 1.2-1.2 1.2z"/><path d="m81 51h-34c-.7 0-1.2-.5-1.2-1.2s.5-1.2 1.2-1.2h34c.7 0 1.2.5 1.2 1.2s-.5 1.2-1.2 1.2z"/><path d="m81 55.7h-34c-.7 0-1.2-.5-1.2-1.2s.5-1.2 1.2-1.2h34c.7 0 1.2.5 1.2 1.2s-.5 1.2-1.2 1.2z"/><path d="m81 60.5h-18.7c-.7 0-1.2-.5-1.2-1.2s.5-1.2 1.2-1.2h18.7c.7 0 1.2.5 1.2 1.2.1.6-.5 1.2-1.2 1.2z"/><path d="m81 65.2h-18.7c-.7 0-1.2-.5-1.2-1.2s.5-1.2 1.2-1.2h18.7c.7 0 1.2.5 1.2 1.2.1.7-.5 1.2-1.2 1.2z"/><path d="m81 69.9h-18.7c-.7 0-1.2-.5-1.2-1.2s.5-1.2 1.2-1.2h18.7c.7 0 1.2.5 1.2 1.2s-.5 1.2-1.2 1.2z"/></g></svg>