<svg enable-background="new 0 0 128 128" viewBox="0 0 128 128" xmlns="http://www.w3.org/2000/svg" xmlns:xlink="http://www.w3.org/1999/xlink"><radialGradient id="a" cx="63.7" cy="63.25" gradientUnits="userSpaceOnUse" r="59.275"><stop offset="0" stop-color="#fcaf6d"/><stop offset="1" stop-color="#fe8500"/></radialGradient><path d="m20.3 79.1-15.9-59.2 59.3-15.9 59.3 15.9-15.8 59.2-43.5 43.4z" fill="url(#a)"/><path d="m63.7 5.5 57.4 15.4-15.3 57.4-42.1 42-42-42-15.4-57.4zm0-3.1-61.1 16.4 16.4 61.1 44.7 44.7 44.8-44.7 16.3-61.1z"/><g opacity=".87"><path d="m64 68.1c-10.4 0-18.8-8.5-18.8-18.8s8.4-18.8 18.8-18.8 18.8 8.5 18.8 18.8c0 10.4-8.4 18.8-18.8 18.8zm0-35.1c-9 0-16.4 7.4-16.4 16.4s7.4 16.3 16.4 16.3 16.4-7.4 16.4-16.4-7.4-16.3-16.4-16.3z"/><path d="m64 63.4c-7.8 0-14.1-6.3-14.1-14.1s6.3-14.1 14.1-14.1 14.1 6.3 14.1 14.1-6.3 14.1-14.1 14.1zm0-25.8c-6.4 0-11.6 5.2-11.6 11.6s5.1 11.7 11.6 11.7 11.6-5.2 11.6-11.6c.1-6.5-5.2-11.7-11.6-11.7z"/><path d="m93.8 31.9h-13.9l-2.5-9c-.1-.6-.6-.9-1.2-.9h-24.4c-.6 0-1 .4-1.2.9l-2.5 9h-.8v-2.6c0-.7-.6-1.2-1.2-1.2h-8.1c-.7 0-1.2.6-1.2 1.2v2.6h-2.5c-.7 0-1.2.6-1.2 1.2v38.6c0 .7.6 1.2 1.2 1.2h59.5c.7 0 1.2-.6 1.2-1.2v-38.6c0-.6-.6-1.2-1.2-1.2zm-54.6-1.4h5.6v1.4h-5.6zm53.3 40h-57v-36.1h13.5c.6 0 1-.4 1.2-.9l2.5-9h22.6l2.5 9c.1.6.6.9 1.2.9h13.7v36.1z"/></g></svg>