<svg enable-background="new 0 0 128 128" viewBox="0 0 128 128" xmlns="http://www.w3.org/2000/svg" xmlns:xlink="http://www.w3.org/1999/xlink"><radialGradient id="a" cx="63.7" cy="63.25" gradientUnits="userSpaceOnUse" r="59.275"><stop offset="0" stop-color="#2d74da"/><stop offset="1" stop-color="#1f57a4"/></radialGradient><path d="m20.3 79.1-15.9-59.2 59.3-15.9 59.3 15.9-15.8 59.2-43.5 43.4z" fill="url(#a)"/><g fill="#fff"><path d="m63.7 5.5 57.4 15.4-15.3 57.4-42.1 42-42-42-15.4-57.4zm0-3.1-61.1 16.4 16.4 61.1 44.7 44.7 44.8-44.7 16.3-61.1z"/><g opacity=".87"><path d="m93.5 23.9h-59c-.8 0-1.5.7-1.5 1.5v44.2c0 .8.7 1.5 1.5 1.5h59c.8 0 1.5-.7 1.5-1.5v-44.2c0-.8-.7-1.5-1.5-1.5zm-57.5 3h56v2.3h-56zm56 41.1h-56v-35.7h56z"/><path d="m54.2 58.9c-.4 0-.8-.2-1.1-.5l-6.2-6.2c-.3-.3-.5-.7-.5-1.1s.2-.8.5-1.1l6.3-6.3c.6-.6 1.5-.6 2.1 0s.6 1.5 0 2.1l-5.2 5.2 5.1 5.1c.6.6.6 1.5 0 2.1-.2.5-.6.7-1 .7z"/><path d="m73.8 58.9c-.4 0-.8-.2-1.1-.5-.6-.6-.6-1.5 0-2.1l5.1-5.1-5.2-5.2c-.6-.6-.6-1.5 0-2.1s1.5-.6 2.1 0l6.3 6.3c.6.6.6 1.5 0 2.1l-6.2 6.2c-.3.2-.7.4-1 .4z"/><path d="m59.8 62.2c-.2 0-.4 0-.6-.2-.8-.3-1.1-1.2-.8-2l7.8-19c.3-.8 1.2-1.1 2-.8s1.1 1.2.8 2l-7.8 19c-.2.6-.8 1-1.4 1z"/></g></g></svg>